<mxfile host="Electron" agent="Mozilla/5.0 (Windows NT 10.0; Win64; x64) AppleWebKit/537.36 (KHTML, like Gecko) draw.io/26.2.2 Chrome/134.0.6998.178 Electron/35.1.2 Safari/537.36" version="26.2.2">
  <diagram name="Page-1" id="iXBaaojKtdzoJH_NNryg">
    <mxGraphModel dx="1058" dy="643" grid="1" gridSize="10" guides="1" tooltips="1" connect="1" arrows="1" fold="1" page="1" pageScale="1" pageWidth="1920" pageHeight="1200" math="0" shadow="0">
      <root>
        <mxCell id="0" />
        <mxCell id="1" parent="0" />
        <mxCell id="SojwOMtYfQzhZggXxIuW-13" value="" style="rounded=1;whiteSpace=wrap;html=1;" parent="1" vertex="1">
          <mxGeometry x="630" y="210" width="140" height="360" as="geometry" />
        </mxCell>
        <mxCell id="SojwOMtYfQzhZggXxIuW-17" value="dim_customers" style="rounded=1;whiteSpace=wrap;html=1;fillColor=#fff2cc;strokeColor=#d6b656;" parent="1" vertex="1">
          <mxGeometry x="640" y="441" width="120" height="45" as="geometry" />
        </mxCell>
        <mxCell id="NUYvxAceGa--DN3CTaLO-1" value="&lt;b&gt;&lt;font style=&quot;font-size: 17px;&quot;&gt;Data Flow Diagram&lt;/font&gt;&lt;/b&gt;" style="text;html=1;align=center;verticalAlign=middle;whiteSpace=wrap;rounded=0;" parent="1" vertex="1">
          <mxGeometry x="280" y="90" width="250" height="30" as="geometry" />
        </mxCell>
        <mxCell id="NUYvxAceGa--DN3CTaLO-2" value="" style="rounded=0;whiteSpace=wrap;html=1;" parent="1" vertex="1">
          <mxGeometry x="40" y="180" width="120" height="390" as="geometry" />
        </mxCell>
        <mxCell id="NUYvxAceGa--DN3CTaLO-3" value="&lt;b&gt;Sources&lt;/b&gt;" style="text;html=1;align=center;verticalAlign=middle;whiteSpace=wrap;rounded=0;fillColor=default;strokeColor=default;" parent="1" vertex="1">
          <mxGeometry x="70" y="170" width="60" height="30" as="geometry" />
        </mxCell>
        <mxCell id="NUYvxAceGa--DN3CTaLO-10" value="" style="rounded=1;whiteSpace=wrap;html=1;" parent="1" vertex="1">
          <mxGeometry x="220" y="210" width="140" height="360" as="geometry" />
        </mxCell>
        <mxCell id="NUYvxAceGa--DN3CTaLO-11" value="Bronze Layer" style="rounded=1;whiteSpace=wrap;html=1;fillColor=#ffe6cc;strokeColor=#d79b00;" parent="1" vertex="1">
          <mxGeometry x="220" y="155" width="140" height="45" as="geometry" />
        </mxCell>
        <mxCell id="NUYvxAceGa--DN3CTaLO-12" value="" style="rounded=1;whiteSpace=wrap;html=1;" parent="1" vertex="1">
          <mxGeometry x="420" y="210" width="140" height="360" as="geometry" />
        </mxCell>
        <mxCell id="NUYvxAceGa--DN3CTaLO-13" value="Silver Layer" style="rounded=1;whiteSpace=wrap;html=1;fillColor=#f5f5f5;fontColor=#333333;strokeColor=#666666;" parent="1" vertex="1">
          <mxGeometry x="420" y="155" width="140" height="45" as="geometry" />
        </mxCell>
        <mxCell id="SojwOMtYfQzhZggXxIuW-7" style="edgeStyle=orthogonalEdgeStyle;rounded=0;orthogonalLoop=1;jettySize=auto;html=1;exitX=1;exitY=0.5;exitDx=0;exitDy=0;" parent="1" source="NUYvxAceGa--DN3CTaLO-14" target="SojwOMtYfQzhZggXxIuW-1" edge="1">
          <mxGeometry relative="1" as="geometry" />
        </mxCell>
        <mxCell id="NUYvxAceGa--DN3CTaLO-14" value="crm_cust_info" style="rounded=1;whiteSpace=wrap;html=1;fillColor=#ffe6cc;strokeColor=#d79b00;" parent="1" vertex="1">
          <mxGeometry x="230" y="229.5" width="120" height="45" as="geometry" />
        </mxCell>
        <mxCell id="SojwOMtYfQzhZggXxIuW-9" style="edgeStyle=orthogonalEdgeStyle;rounded=0;orthogonalLoop=1;jettySize=auto;html=1;entryX=0;entryY=0.5;entryDx=0;entryDy=0;" parent="1" source="NUYvxAceGa--DN3CTaLO-15" target="SojwOMtYfQzhZggXxIuW-2" edge="1">
          <mxGeometry relative="1" as="geometry" />
        </mxCell>
        <mxCell id="NUYvxAceGa--DN3CTaLO-15" value="crm_prd_info" style="rounded=1;whiteSpace=wrap;html=1;fillColor=#ffe6cc;strokeColor=#d79b00;" parent="1" vertex="1">
          <mxGeometry x="230" y="285" width="120" height="45" as="geometry" />
        </mxCell>
        <mxCell id="SojwOMtYfQzhZggXxIuW-8" style="edgeStyle=orthogonalEdgeStyle;rounded=0;orthogonalLoop=1;jettySize=auto;html=1;" parent="1" source="NUYvxAceGa--DN3CTaLO-16" target="SojwOMtYfQzhZggXxIuW-3" edge="1">
          <mxGeometry relative="1" as="geometry" />
        </mxCell>
        <mxCell id="NUYvxAceGa--DN3CTaLO-16" value="crm_sales_setails" style="rounded=1;whiteSpace=wrap;html=1;fillColor=#ffe6cc;strokeColor=#d79b00;" parent="1" vertex="1">
          <mxGeometry x="230" y="340" width="120" height="45" as="geometry" />
        </mxCell>
        <mxCell id="SojwOMtYfQzhZggXxIuW-10" style="edgeStyle=orthogonalEdgeStyle;rounded=0;orthogonalLoop=1;jettySize=auto;html=1;entryX=0;entryY=0.5;entryDx=0;entryDy=0;" parent="1" source="NUYvxAceGa--DN3CTaLO-17" target="SojwOMtYfQzhZggXxIuW-4" edge="1">
          <mxGeometry relative="1" as="geometry" />
        </mxCell>
        <mxCell id="NUYvxAceGa--DN3CTaLO-17" value="erp_cust_az12" style="rounded=1;whiteSpace=wrap;html=1;fillColor=#ffe6cc;strokeColor=#d79b00;" parent="1" vertex="1">
          <mxGeometry x="230" y="396" width="120" height="45" as="geometry" />
        </mxCell>
        <mxCell id="SojwOMtYfQzhZggXxIuW-11" style="edgeStyle=orthogonalEdgeStyle;rounded=0;orthogonalLoop=1;jettySize=auto;html=1;entryX=0;entryY=0.5;entryDx=0;entryDy=0;" parent="1" source="NUYvxAceGa--DN3CTaLO-18" target="SojwOMtYfQzhZggXxIuW-5" edge="1">
          <mxGeometry relative="1" as="geometry" />
        </mxCell>
        <mxCell id="NUYvxAceGa--DN3CTaLO-18" value="erp_loc_a101" style="rounded=1;whiteSpace=wrap;html=1;fillColor=#ffe6cc;strokeColor=#d79b00;" parent="1" vertex="1">
          <mxGeometry x="230" y="450" width="120" height="45" as="geometry" />
        </mxCell>
        <mxCell id="SojwOMtYfQzhZggXxIuW-12" style="edgeStyle=orthogonalEdgeStyle;rounded=0;orthogonalLoop=1;jettySize=auto;html=1;entryX=0;entryY=0.5;entryDx=0;entryDy=0;" parent="1" source="NUYvxAceGa--DN3CTaLO-19" target="SojwOMtYfQzhZggXxIuW-6" edge="1">
          <mxGeometry relative="1" as="geometry" />
        </mxCell>
        <mxCell id="NUYvxAceGa--DN3CTaLO-19" value="erp_px_cat_g1v2" style="rounded=1;whiteSpace=wrap;html=1;fillColor=#ffe6cc;strokeColor=#d79b00;" parent="1" vertex="1">
          <mxGeometry x="230" y="510" width="120" height="45" as="geometry" />
        </mxCell>
        <mxCell id="NUYvxAceGa--DN3CTaLO-20" value="" style="group" parent="1" vertex="1" connectable="0">
          <mxGeometry x="70" y="454" width="60" height="66" as="geometry" />
        </mxCell>
        <mxCell id="NUYvxAceGa--DN3CTaLO-6" value="" style="image;aspect=fixed;html=1;points=[];align=center;fontSize=12;image=img/lib/azure2/general/Folder_Blank.svg;" parent="NUYvxAceGa--DN3CTaLO-20" vertex="1">
          <mxGeometry x="7.819999999999993" width="44.36" height="36" as="geometry" />
        </mxCell>
        <mxCell id="NUYvxAceGa--DN3CTaLO-8" value="&lt;b&gt;ERP&lt;/b&gt;" style="text;html=1;align=center;verticalAlign=middle;whiteSpace=wrap;rounded=0;" parent="NUYvxAceGa--DN3CTaLO-20" vertex="1">
          <mxGeometry y="36" width="60" height="30" as="geometry" />
        </mxCell>
        <mxCell id="NUYvxAceGa--DN3CTaLO-21" value="" style="group" parent="1" vertex="1" connectable="0">
          <mxGeometry x="70" y="290" width="60" height="66" as="geometry" />
        </mxCell>
        <mxCell id="NUYvxAceGa--DN3CTaLO-5" value="" style="image;aspect=fixed;html=1;points=[];align=center;fontSize=12;image=img/lib/azure2/general/Folder_Blank.svg;" parent="NUYvxAceGa--DN3CTaLO-21" vertex="1">
          <mxGeometry x="7.819999999999993" width="44.36" height="36" as="geometry" />
        </mxCell>
        <mxCell id="NUYvxAceGa--DN3CTaLO-7" value="&lt;b&gt;CRM&lt;/b&gt;" style="text;html=1;align=center;verticalAlign=middle;whiteSpace=wrap;rounded=0;" parent="NUYvxAceGa--DN3CTaLO-21" vertex="1">
          <mxGeometry y="36" width="60" height="30" as="geometry" />
        </mxCell>
        <mxCell id="NUYvxAceGa--DN3CTaLO-24" style="edgeStyle=orthogonalEdgeStyle;rounded=0;orthogonalLoop=1;jettySize=auto;html=1;entryX=0;entryY=0.5;entryDx=0;entryDy=0;" parent="1" source="NUYvxAceGa--DN3CTaLO-5" target="NUYvxAceGa--DN3CTaLO-15" edge="1">
          <mxGeometry relative="1" as="geometry">
            <Array as="points">
              <mxPoint x="190" y="308" />
              <mxPoint x="190" y="308" />
            </Array>
          </mxGeometry>
        </mxCell>
        <mxCell id="NUYvxAceGa--DN3CTaLO-25" style="edgeStyle=orthogonalEdgeStyle;rounded=0;orthogonalLoop=1;jettySize=auto;html=1;entryX=0;entryY=0.5;entryDx=0;entryDy=0;" parent="1" source="NUYvxAceGa--DN3CTaLO-5" target="NUYvxAceGa--DN3CTaLO-14" edge="1">
          <mxGeometry relative="1" as="geometry" />
        </mxCell>
        <mxCell id="NUYvxAceGa--DN3CTaLO-29" style="edgeStyle=orthogonalEdgeStyle;rounded=0;orthogonalLoop=1;jettySize=auto;html=1;entryX=0;entryY=0.5;entryDx=0;entryDy=0;" parent="1" source="NUYvxAceGa--DN3CTaLO-5" target="NUYvxAceGa--DN3CTaLO-16" edge="1">
          <mxGeometry relative="1" as="geometry" />
        </mxCell>
        <mxCell id="NUYvxAceGa--DN3CTaLO-30" style="edgeStyle=orthogonalEdgeStyle;rounded=0;orthogonalLoop=1;jettySize=auto;html=1;" parent="1" source="NUYvxAceGa--DN3CTaLO-6" target="NUYvxAceGa--DN3CTaLO-18" edge="1">
          <mxGeometry relative="1" as="geometry" />
        </mxCell>
        <mxCell id="NUYvxAceGa--DN3CTaLO-31" style="edgeStyle=orthogonalEdgeStyle;rounded=0;orthogonalLoop=1;jettySize=auto;html=1;entryX=0;entryY=0.5;entryDx=0;entryDy=0;" parent="1" source="NUYvxAceGa--DN3CTaLO-6" target="NUYvxAceGa--DN3CTaLO-17" edge="1">
          <mxGeometry relative="1" as="geometry" />
        </mxCell>
        <mxCell id="NUYvxAceGa--DN3CTaLO-32" style="edgeStyle=orthogonalEdgeStyle;rounded=0;orthogonalLoop=1;jettySize=auto;html=1;entryX=0;entryY=0.5;entryDx=0;entryDy=0;" parent="1" source="NUYvxAceGa--DN3CTaLO-6" target="NUYvxAceGa--DN3CTaLO-19" edge="1">
          <mxGeometry relative="1" as="geometry" />
        </mxCell>
        <mxCell id="Y9xcvnEmC0oR_sJDcTGN-1" style="rounded=0;orthogonalLoop=1;jettySize=auto;html=1;exitX=1;exitY=0.5;exitDx=0;exitDy=0;entryX=0;entryY=0.5;entryDx=0;entryDy=0;" edge="1" parent="1" source="SojwOMtYfQzhZggXxIuW-1" target="SojwOMtYfQzhZggXxIuW-17">
          <mxGeometry relative="1" as="geometry" />
        </mxCell>
        <mxCell id="SojwOMtYfQzhZggXxIuW-1" value="crm_cust_info" style="rounded=1;whiteSpace=wrap;html=1;fillColor=#f5f5f5;strokeColor=#666666;fontColor=#333333;" parent="1" vertex="1">
          <mxGeometry x="430" y="229.5" width="120" height="45" as="geometry" />
        </mxCell>
        <mxCell id="Y9xcvnEmC0oR_sJDcTGN-2" style="rounded=0;orthogonalLoop=1;jettySize=auto;html=1;exitX=1;exitY=0.5;exitDx=0;exitDy=0;entryX=0;entryY=0.5;entryDx=0;entryDy=0;" edge="1" parent="1" source="SojwOMtYfQzhZggXxIuW-2" target="SojwOMtYfQzhZggXxIuW-16">
          <mxGeometry relative="1" as="geometry" />
        </mxCell>
        <mxCell id="SojwOMtYfQzhZggXxIuW-2" value="crm_prd_info" style="rounded=1;whiteSpace=wrap;html=1;fillColor=#f5f5f5;strokeColor=#666666;fontColor=#333333;" parent="1" vertex="1">
          <mxGeometry x="430" y="285" width="120" height="45" as="geometry" />
        </mxCell>
        <mxCell id="Y9xcvnEmC0oR_sJDcTGN-3" style="rounded=0;orthogonalLoop=1;jettySize=auto;html=1;exitX=1;exitY=0.5;exitDx=0;exitDy=0;entryX=0;entryY=0.5;entryDx=0;entryDy=0;" edge="1" parent="1" source="SojwOMtYfQzhZggXxIuW-3" target="SojwOMtYfQzhZggXxIuW-18">
          <mxGeometry relative="1" as="geometry" />
        </mxCell>
        <mxCell id="SojwOMtYfQzhZggXxIuW-3" value="crm_sales_setails" style="rounded=1;whiteSpace=wrap;html=1;fillColor=#f5f5f5;strokeColor=#666666;fontColor=#333333;" parent="1" vertex="1">
          <mxGeometry x="430" y="340" width="120" height="45" as="geometry" />
        </mxCell>
        <mxCell id="Y9xcvnEmC0oR_sJDcTGN-4" style="rounded=0;orthogonalLoop=1;jettySize=auto;html=1;exitX=1;exitY=0.5;exitDx=0;exitDy=0;entryX=0;entryY=0.5;entryDx=0;entryDy=0;" edge="1" parent="1" source="SojwOMtYfQzhZggXxIuW-4" target="SojwOMtYfQzhZggXxIuW-17">
          <mxGeometry relative="1" as="geometry" />
        </mxCell>
        <mxCell id="SojwOMtYfQzhZggXxIuW-4" value="erp_cust_az12" style="rounded=1;whiteSpace=wrap;html=1;fillColor=#f5f5f5;strokeColor=#666666;fontColor=#333333;" parent="1" vertex="1">
          <mxGeometry x="430" y="396" width="120" height="45" as="geometry" />
        </mxCell>
        <mxCell id="Y9xcvnEmC0oR_sJDcTGN-5" style="rounded=0;orthogonalLoop=1;jettySize=auto;html=1;exitX=1;exitY=0.5;exitDx=0;exitDy=0;entryX=0;entryY=0.5;entryDx=0;entryDy=0;" edge="1" parent="1" source="SojwOMtYfQzhZggXxIuW-5" target="SojwOMtYfQzhZggXxIuW-17">
          <mxGeometry relative="1" as="geometry" />
        </mxCell>
        <mxCell id="SojwOMtYfQzhZggXxIuW-5" value="erp_loc_a101" style="rounded=1;whiteSpace=wrap;html=1;fillColor=#f5f5f5;strokeColor=#666666;fontColor=#333333;" parent="1" vertex="1">
          <mxGeometry x="430" y="450" width="120" height="45" as="geometry" />
        </mxCell>
        <mxCell id="Y9xcvnEmC0oR_sJDcTGN-6" style="rounded=0;orthogonalLoop=1;jettySize=auto;html=1;exitX=1;exitY=0.5;exitDx=0;exitDy=0;entryX=0;entryY=0.5;entryDx=0;entryDy=0;" edge="1" parent="1" source="SojwOMtYfQzhZggXxIuW-6" target="SojwOMtYfQzhZggXxIuW-16">
          <mxGeometry relative="1" as="geometry" />
        </mxCell>
        <mxCell id="SojwOMtYfQzhZggXxIuW-6" value="erp_px_cat_g1v2" style="rounded=1;whiteSpace=wrap;html=1;fillColor=#f5f5f5;strokeColor=#666666;fontColor=#333333;" parent="1" vertex="1">
          <mxGeometry x="430" y="510" width="120" height="45" as="geometry" />
        </mxCell>
        <mxCell id="SojwOMtYfQzhZggXxIuW-14" value="Gold Layer" style="rounded=1;whiteSpace=wrap;html=1;fillColor=#fff2cc;strokeColor=#d6b656;" parent="1" vertex="1">
          <mxGeometry x="630" y="155" width="140" height="45" as="geometry" />
        </mxCell>
        <mxCell id="SojwOMtYfQzhZggXxIuW-16" value="dim_products" style="rounded=1;whiteSpace=wrap;html=1;fillColor=#fff2cc;strokeColor=#d6b656;" parent="1" vertex="1">
          <mxGeometry x="640" y="245" width="120" height="45" as="geometry" />
        </mxCell>
        <mxCell id="SojwOMtYfQzhZggXxIuW-18" value="fact_sales" style="rounded=1;whiteSpace=wrap;html=1;fillColor=#fff2cc;strokeColor=#d6b656;" parent="1" vertex="1">
          <mxGeometry x="640" y="340" width="120" height="45" as="geometry" />
        </mxCell>
      </root>
    </mxGraphModel>
  </diagram>
</mxfile>
